<svg width="758" height="976" viewBox="0 0 758 976" fill="none" xmlns="http://www.w3.org/2000/svg">
<path d="M101.447 179.786L21.3455 116.518C-15.7771 87.197 3.88349 27.559 51.1848 26.0042L782.27 1.97334C829.571 0.418533 853.105 58.6367 817.988 90.3324L742.215 158.724C718.897 179.77 720.111 216.703 744.76 236.172L820.695 296.149C845.344 315.618 846.558 352.551 823.24 373.597L751.409 438.431C728.091 459.477 729.305 496.41 753.954 515.879L829.889 575.856C854.538 595.325 855.752 632.258 832.434 653.304L760.603 718.138C737.285 739.184 738.499 776.117 763.148 795.586L843.25 858.854C880.373 888.175 860.712 947.813 813.411 949.368L82.3258 973.399C35.0245 974.954 11.4901 916.736 46.607 885.04L122.381 816.648C145.699 795.602 144.485 758.669 119.835 739.2L43.9008 679.224C19.2511 659.754 18.0371 622.821 41.3551 601.775L113.187 536.942C136.505 515.895 135.291 478.962 110.641 459.493L34.7068 399.517C10.057 380.047 8.84307 343.114 32.161 322.068L103.993 257.235C127.311 236.188 126.097 199.255 101.447 179.786Z" fill="#00ECEC"/>
<circle cx="254.64" cy="610.151" r="40.4594" transform="rotate(-1.88264 254.64 610.151)" fill="black"/>
<circle cx="622.429" cy="598.062" r="40.4594" transform="rotate(-1.88264 622.429 598.062)" fill="black"/>
<path d="M347.01 663.981V663.981C348.653 713.964 390.504 753.152 440.488 751.509L442.413 751.446C492.397 749.803 531.585 707.951 529.942 657.968V657.968" stroke="black" stroke-width="30.8262"/>
</svg>
