<svg width="587" height="407" viewBox="0 0 587 407" fill="none" xmlns="http://www.w3.org/2000/svg">
<path d="M404.238 30.0984C449.609 43.5586 496.517 67.7868 528.43 106.244C560.343 144.702 577.261 197.004 584.182 253.537C591.103 310.069 588.027 370.832 543.041 386.984C498.44 403.521 412.697 375.447 360.021 373.909C307.73 372.37 288.889 397.368 265.819 404.675C242.75 411.982 215.835 401.214 195.072 384.292C174.694 367.371 160.852 344.296 123.556 320.453C86.2598 296.994 25.5094 273.535 6.6691 238.923C-11.7867 204.311 11.283 158.931 36.6598 114.32C61.652 69.7097 88.5668 26.2527 127.785 9.33135C167.004 -7.58996 218.526 2.409 266.588 8.94678C314.266 15.1 358.867 17.0229 404.238 30.0984Z" fill="#CDC0CC"/>
</svg>
