<svg width="1450" height="1169" viewBox="0 0 1450 1169" fill="none" xmlns="http://www.w3.org/2000/svg">
<path d="M94.4627 590.676C27.8455 516.292 80.9614 398.153 180.867 398.499L346.779 399.074C520.479 399.676 687.49 332.017 811.793 210.687L948.559 77.193C1018.36 9.06411 1135.95 52.8751 1144.05 150.023L1152.27 248.691C1161.92 364.563 1207.85 474.433 1283.54 562.699L1386.96 683.297C1438.13 742.981 1415.8 835.263 1342.98 865.029L442.955 1232.91C368.37 1263.4 286.327 1210.01 284.061 1129.52L280.251 994.208C276.571 863.485 226.683 738.313 139.438 640.896L94.4627 590.676Z" fill="#B5F634"/>
<path d="M530.572 614.316L605.57 611.187C619.99 610.585 627.254 628.356 616.541 638.027L560.824 688.328" stroke="black" stroke-width="30.8262"/>
<path d="M848.02 484.56L792.303 534.861C781.59 544.532 788.854 562.303 803.273 561.701L878.272 558.572" stroke="black" stroke-width="30.8262"/>
<path d="M360.223 798.422V798.422C379.547 845.699 433.539 868.36 480.817 849.035L1047.94 617.224C1095.22 597.899 1117.88 543.907 1098.55 496.63V496.63" stroke="black" stroke-width="30.8262"/>
</svg>
