<svg width="24" height="24" viewBox="0 0 24 24" fill="none" xmlns="http://www.w3.org/2000/svg">
<path d="M12.8243 4L5 4C3.34315 4 2 5.34315 2 7L2 11.0255C2 11.5077 2.11622 11.9828 2.33882 12.4105L5.44813 18.385C5.96464 19.3774 6.99049 20 8.1093 20L19 20C20.6569 20 22 18.6569 22 17L22 9.7339C22 8.54674 21.2999 7.47124 20.2144 6.99068L14.0387 4.25678C13.6562 4.08747 13.2426 4 12.8243 4Z" stroke="#82291B" stroke-width="2" stroke-linecap="round" stroke-linejoin="round"/>
<path d="M11 14L11 11M17 14L17 11" stroke="#82291B" stroke-width="2" stroke-linecap="round" stroke-linejoin="round"/>
</svg>
