<svg width="342" height="349" viewBox="0 0 342 349" fill="none" xmlns="http://www.w3.org/2000/svg">
<path d="M298.368 37.42C310.17 68.1035 294.153 119.337 302.021 154.524C309.889 189.712 341.361 208.854 341.08 224.336C340.518 239.819 307.922 251.923 287.69 273.599C267.458 295.274 259.309 326.802 241.887 337.499C224.184 348.478 196.927 338.344 157.306 340.596C117.685 342.566 65.9807 356.641 35.0707 341.159C4.16066 325.676 -5.67435 280.636 3.03665 242.071C11.7477 203.787 38.7237 171.696 58.1127 139.042C77.5017 106.388 89.3037 73.1705 112.627 47.554C135.95 22.219 171.075 4.48453 208.729 0.825029C246.102 -3.11597 286.285 6.73653 298.368 37.42Z" fill="#CDC0CC"/>
</svg>
