<svg width="442" height="315" viewBox="0 0 442 315" fill="none" xmlns="http://www.w3.org/2000/svg">
<path d="M300.393 49.3078C329.106 60.8288 372.457 52.6798 396.103 65.0438C419.749 77.4078 423.971 110.847 431.009 148.22C438.328 185.593 448.462 226.9 434.95 257.248C421.438 287.315 384.561 306.142 348.529 312.324C312.497 318.225 277.591 311.481 250.004 298.836C222.417 286.191 201.868 267.926 179.348 254.157C156.828 240.669 132.056 231.396 98.5572 213.693C65.3402 195.99 23.3967 170.138 7.35123 134.732C-8.41277 99.6068 1.43973 55.2088 34.3752 36.9438C67.5922 18.9598 123.892 27.1088 162.176 21.4888C200.742 15.5878 221.854 -4.64417 239.307 0.975831C257.042 6.59583 271.68 37.7868 300.393 49.3078Z" fill="#CDC0CC"/>
</svg>
