<svg width="300" height="318" viewBox="0 0 300 318" fill="none" xmlns="http://www.w3.org/2000/svg">
<path d="M248.78 44.3434C292.554 81.7238 272.13 152.952 216.584 162.898L214.072 163.34C183.939 168.816 160.223 195.846 160.189 227.458C160.129 283.114 94.9472 312.334 52.7058 276.098C10.3593 239.772 28.3334 169.81 82.8408 159.895C113.659 154.402 135.257 128.605 136.678 97.727L137.904 92.8234C139.508 36.2476 206.094 7.47004 248.78 44.3434Z" fill="#E64623"/>
<circle cx="205.368" cy="107.876" r="8.09188" transform="rotate(130.624 205.368 107.876)" fill="black"/>
<circle cx="107.521" cy="222.52" r="8.09188" transform="rotate(130.624 107.521 222.52)" fill="black"/>
<path d="M175.289 122.687L168.38 123.193C163.15 123.575 159.234 128.146 159.659 133.373L160.027 137.902C160.453 143.134 156.529 147.708 152.293 148.083L147.175 148.408C142.939 148.783 139.015 153.357 139.44 158.589L139.808 163.105C140.233 168.336 136.309 172.911 132.074 173.286L125.641 173.611C121.411 173.986 116.989 178.552 117.406 183.78L117.958 190.685" stroke="black" stroke-width="6.9359"/>
</svg>
