<svg width="240" height="350" viewBox="0 0 240 350" fill="none" xmlns="http://www.w3.org/2000/svg">
<path d="M233.806 13.2467C247.575 33.7962 230.434 86.1552 227.905 123.313C225.376 160.471 237.178 182.147 232.12 198.755C227.062 215.082 204.863 226.061 185.193 256.463C165.523 287.146 148.382 337.253 123.373 347.669C98.3643 358.366 65.7682 329.371 44.6933 299.251C23.6183 269.13 14.0643 237.884 8.72526 208.326C3.10526 178.769 1.98125 150.9 0.576254 113.179C-0.547746 75.4582 -2.23374 27.6032 19.4033 9.86868C41.3213 -8.14732 86.0002 3.95718 130.679 4.23868C175.639 4.52018 220.037 -7.02132 233.806 13.2467Z" fill="#CDC0CC"/>
</svg>
