<svg width="183" height="166" viewBox="0 0 183 166" fill="none" xmlns="http://www.w3.org/2000/svg">
<path d="M159.543 13.2357C172.53 23.434 181.532 38.0663 182.122 52.5507C182.712 67.0352 174.743 81.2241 168.988 95.2651C163.085 109.158 159.543 123.052 150.541 130.294C141.687 137.684 127.372 138.571 107.745 145.961C88.1178 153.499 63.1779 167.54 40.304 164.731C17.4302 161.923 -3.37762 142.266 0.459286 122.165C4.29619 102.064 32.7778 81.5197 50.339 66.8874C67.9002 52.1073 74.8362 43.2393 83.543 31.7108C92.1022 20.1824 102.727 5.6979 116.304 1.41168C129.881 -2.87454 146.704 3.03749 159.543 13.2357Z" fill="#CDC0CC"/>
</svg>
